<svg xmlns="http://www.w3.org/2000/svg" viewBox="0 0 128 128">
  <defs>
    <linearGradient id="bg" x1="0" x2="0" y1="0" y2="1">
      <stop offset="0%" stop-color="#091a33" />
      <stop offset="100%" stop-color="#142c4d" />
    </linearGradient>
    <linearGradient id="tail" x1="0" y1="0" x2="1" y2="1">
      <stop offset="0%" stop-color="#0b3a80" />
      <stop offset="100%" stop-color="#1c5fb5" />
    </linearGradient>
  </defs>
  <rect width="128" height="128" rx="16" fill="url(#bg)" />
  <g transform="translate(30 28)">
    <path d="M0 72h44l22-40-6-12H0z" fill="#d7dceb" opacity="0.75" />
    <path d="M6 68h40l18-34-10-18H6z" fill="#edf1fb" />
    <path d="M20 30l14-26 34 6 10 18-18 34z" fill="url(#tail)" />
    <path d="M22 34l12-22 28 5 8 14-16 30z" fill="#0f2d56" opacity="0.35" />
  </g>
  <g transform="translate(64 64)" fill="none" stroke="#72f6ff" stroke-width="6" stroke-linecap="round">
    <path d="M0 20v-4" />
    <path d="M0 8c0-4 6-4 6-10 0-4-3-6-6-6s-6 2-6 6" />
  </g>
</svg>
