<svg xmlns="http://www.w3.org/2000/svg" viewBox="0 0 160 160">
  <defs>
    <linearGradient id="bg" x1="15%" y1="10%" x2="85%" y2="90%">
      <stop offset="0" stop-color="#72f6ff" />
      <stop offset="1" stop-color="#ffd972" />
    </linearGradient>
    <linearGradient id="card" x1="0%" y1="0%" x2="100%" y2="100%">
      <stop offset="0" stop-color="rgba(114,246,255,0.32)" />
      <stop offset="1" stop-color="rgba(255,217,114,0.36)" />
    </linearGradient>
  </defs>
  <rect width="160" height="160" rx="36" fill="url(#bg)" />
  <rect width="144" height="144" x="8" y="8" rx="28" fill="rgba(14,16,28,0.45)" />
  <g stroke="rgba(255,255,255,0.2)" stroke-width="2" fill="#10162a" opacity="0.9">
    <rect x="34" y="30" width="92" height="22" rx="10" />
    <rect x="26" y="62" width="108" height="28" rx="12" />
    <rect x="34" y="100" width="92" height="28" rx="12" />
  </g>
  <g font-family="Inter, sans-serif" font-size="12" font-weight="600" fill="#f4f6ff">
    <text x="38" y="45">Producer</text>
    <text x="30" y="80">Primary Consumer</text>
    <text x="40" y="118">Apex Predator</text>
  </g>
  <g stroke="#ffd972" stroke-width="3" stroke-linecap="round">
    <line x1="80" y1="52" x2="80" y2="62" />
    <line x1="80" y1="90" x2="80" y2="100" />
  </g>
  <g fill="#ffd972">
    <polygon points="80 58 75 63 85 63" />
    <polygon points="80 96 75 101 85 101" />
  </g>
  <circle cx="80" cy="128" r="10" fill="#ffd972" opacity="0.25" />
  <circle cx="80" cy="36" r="8" fill="#72f6ff" opacity="0.35" />
</svg>
