<svg xmlns="http://www.w3.org/2000/svg" viewBox="0 0 160 160">
  <defs>
    <linearGradient id="frame" x1="20%" y1="5%" x2="80%" y2="95%">
      <stop offset="0" stop-color="#63c7ff" />
      <stop offset="1" stop-color="#ff9c5a" />
    </linearGradient>
    <linearGradient id="ice" x1="30%" y1="0%" x2="70%" y2="100%">
      <stop offset="0" stop-color="#9ae5ff" />
      <stop offset="1" stop-color="#4aa8ff" />
    </linearGradient>
    <linearGradient id="fire" x1="30%" y1="0%" x2="70%" y2="100%">
      <stop offset="0" stop-color="#ffd86a" />
      <stop offset="1" stop-color="#ff6d65" />
    </linearGradient>
    <radialGradient id="glow" cx="50%" cy="45%" r="55%">
      <stop offset="0" stop-color="#ffffff" stop-opacity="0.85" />
      <stop offset="1" stop-color="#ffffff" stop-opacity="0" />
    </radialGradient>
  </defs>
  <rect width="160" height="160" rx="36" fill="url(#frame)" />
  <rect width="144" height="144" x="8" y="8" rx="28" fill="rgba(14,16,28,0.4)" />
  <circle cx="80" cy="80" r="60" fill="url(#glow)" />
  <g transform="translate(45 38)">
    <path d="M35 0c-10 12-16 24-16 35 0 11 7 18 16 22 9-4 16-11 16-22 0-11-6-23-16-35z" fill="url(#fire)" />
    <path d="M35 0c-10 12-16 24-16 35 0 11 7 18 16 22V0z" fill="url(#ice)" />
    <path d="M19 59c0 10 7 19 16 23 9-4 16-13 16-23" fill="none" stroke="rgba(255,255,255,0.2)" stroke-width="4" stroke-linecap="round" />
    <circle cx="35" cy="95" r="18" fill="rgba(14,16,28,0.5)" />
    <circle cx="35" cy="95" r="14" fill="url(#fire)" />
    <path d="M18 92c-6 0-8 5-8 5" stroke="rgba(154,229,255,0.7)" stroke-width="4" stroke-linecap="round" />
    <path d="M52 92c6 0 8 5 8 5" stroke="rgba(255,136,96,0.7)" stroke-width="4" stroke-linecap="round" />
    <g fill="none" stroke="rgba(154,229,255,0.7)" stroke-linecap="round" stroke-width="4">
      <path d="M22 40-2 40" />
      <path d="M18 32-4 22" />
      <path d="M26 48 6 62" />
    </g>
    <g fill="none" stroke="rgba(255,136,96,0.7)" stroke-linecap="round" stroke-width="4">
      <path d="M48 40 72 40" />
      <path d="M52 32 74 22" />
      <path d="M44 48 64 62" />
    </g>
  </g>
</svg>
