<svg xmlns="http://www.w3.org/2000/svg" viewBox="0 0 160 160">
  <defs>
    <linearGradient id="bg" x1="20%" y1="15%" x2="80%" y2="85%">
      <stop offset="0" stop-color="#72f6ff" />
      <stop offset="1" stop-color="#ffd972" />
    </linearGradient>
    <radialGradient id="inner" cx="50%" cy="45%" r="55%">
      <stop offset="0" stop-color="#ffffff" stop-opacity="0.85" />
      <stop offset="1" stop-color="#ffffff" stop-opacity="0" />
    </radialGradient>
    <linearGradient id="thermo" x1="0%" y1="0%" x2="0%" y2="100%">
      <stop offset="0" stop-color="#4cc3ff" />
      <stop offset="0.55" stop-color="#4cc3ff" />
      <stop offset="0.56" stop-color="#ff6b81" />
      <stop offset="1" stop-color="#ff9272" />
    </linearGradient>
  </defs>
  <rect width="160" height="160" rx="36" fill="url(#bg)" />
  <rect width="144" height="144" x="8" y="8" rx="28" fill="rgba(14,16,28,0.35)" />
  <circle cx="80" cy="80" r="58" fill="url(#inner)" />
  <g transform="translate(68 32)">
    <rect x="12" y="18" width="16" height="66" rx="8" fill="#0e101c" fill-opacity="0.18" />
    <path d="M20 18a8 8 0 0 1 8 8v34.5a16 16 0 1 1-16 0V26a8 8 0 0 1 8-8z" fill="#0e101c" fill-opacity="0.25" />
    <path d="M20 18a8 8 0 0 1 8 8v33.5a16 16 0 1 1-16 0V26a8 8 0 0 1 8-8z" fill="url(#thermo)" />
    <circle cx="20" cy="88" r="18" fill="url(#thermo)" />
    <circle cx="20" cy="88" r="10" fill="#ffffff" fill-opacity="0.65" />
  </g>
</svg>
