<svg width="64" height="64" viewBox="0 0 64 64" fill="none" xmlns="http://www.w3.org/2000/svg">
  <rect width="64" height="64" rx="16" fill="#2A1F10"/>
  <path d="M48 28C46 28 44 26 44 24C44 21.7909 45.7909 20 48 20C50.2091 20 52 18.2091 52 16C52 13.7909 50.2091 12 48 12C45.7909 12 44 13.7909 44 16C44 18.2091 42.2091 20 40 20H24C21.7909 20 20 18.2091 20 16C20 13.7909 18.2091 12 16 12C13.7909 12 12 13.7909 12 16C12 18.2091 13.7909 20 16 20C18.2091 20 20 21.7909 20 24C20 26 18 28 16 28C13.7909 28 12 26.2091 12 24C12 21.7909 10.2091 20 8 20C5.79086 20 4 21.7909 4 24C4 26.2091 5.79086 28 8 28C10.2091 28 12 29.7909 12 32C12 34.2091 10.2091 36 8 36C5.79086 36 4 37.7909 4 40C4 42.2091 5.79086 44 8 44C10.2091 44 12 42.2091 12 40C12 37.7909 13.7909 36 16 36C18 36 20 38 20 40C20 42.2091 18.2091 44 16 44C13.7909 44 12 45.7909 12 48C12 50.2091 13.7909 52 16 52C18.2091 52 20 50.2091 20 48C20 45.7909 21.7909 44 24 44H40C42.2091 44 44 45.7909 44 48C44 50.2091 45.7909 52 48 52C50.2091 52 52 50.2091 52 48C52 45.7909 50.2091 44 48 44C45.7909 44 44 42.2091 44 40C44 38 46 36 48 36C50.2091 36 52 37.7909 52 40C52 42.2091 53.7909 44 56 44C58.2091 44 60 42.2091 60 40C60 37.7909 58.2091 36 56 36C53.7909 36 52 34.2091 52 32C52 29.7909 53.7909 28 56 28C58.2091 28 60 26.2091 60 24C60 21.7909 58.2091 20 56 20C53.7909 20 52 21.7909 52 24C52 26 50.2091 28 48 28Z" fill="#FFD972"/>
</svg>
